<svg aria-hidden="true" style="position: absolute; width: 0; height: 0; overflow: hidden;" version="1.1" xmlns="http://www.w3.org/2000/svg" xmlns:xlink="http://www.w3.org/1999/xlink">
    <defs>
        <symbol id="menu-line" viewBox="0 0 32 32">
            <path d="M4 5.333h24v2.667h-24v-2.667zM4 14.667h24v2.667h-24v-2.667zM4 24h24v2.667h-24v-2.667z"></path>
        </symbol>

        <symbol id="hero-image" viewBox="0 0 48 32">
            <path fill="#2f2e41" style="fill: var(--color1, #2f2e41)" d="M37.971 14.161l0.142-1.136c0.050-0.404 0.259-0.771 0.579-1.021s0.727-0.362 1.13-0.312c0.403 0.050 0.77 0.259 1.019 0.58s0.361 0.729 0.311 1.133l-0.142 1.137c-0.007 0.054-0.035 0.104-0.078 0.137s-0.098 0.049-0.152 0.042l-2.631-0.329c-0.054-0.007-0.103-0.035-0.137-0.078s-0.048-0.098-0.042-0.152z"></path>
            <path fill="#ffb8b8" style="fill: var(--color2, #ffb8b8)" d="M39.231 14.5c0.62 0 1.123-0.504 1.123-1.125s-0.503-1.125-1.123-1.125c-0.62 0-1.123 0.504-1.123 1.125s0.503 1.125 1.123 1.125z"></path>
            <path fill="#2f2e41" style="fill: var(--color1, #2f2e41)" d="M37.742 13.071c0.040-0.319 0.205-0.61 0.459-0.807s0.575-0.287 0.894-0.247l0.227 0.028c0.319 0.040 0.608 0.205 0.806 0.459s0.286 0.576 0.247 0.896l-0.003 0.023-0.479-0.060-0.106-0.479-0.090 0.455-0.248-0.031-0.054-0.242-0.045 0.229-1.609-0.201 0.003-0.023z"></path>
            <path fill="#ffb8b8" style="fill: var(--color2, #ffb8b8)" d="M33.74 17.389c0.034 0.068 0.083 0.127 0.143 0.173s0.129 0.080 0.202 0.097c0.074 0.017 0.15 0.018 0.224 0.002s0.144-0.048 0.204-0.094l1.020 0.599 0.514-0.532-1.452-0.825c-0.083-0.096-0.199-0.159-0.325-0.175s-0.254 0.014-0.36 0.085c-0.105 0.072-0.181 0.179-0.212 0.303s-0.016 0.255 0.042 0.368z"></path>
            <path fill="#3f3d56" style="fill: var(--color3, #3f3d56)" d="M37.082 18.465c-0.752 0-2.076-0.338-2.149-0.356l-0.023-0.006 0.208-1.057 2.022 0.4 1.098-1.55 1.261-0.128-0.035 0.046c-0.016 0.022-1.642 2.166-1.895 2.526-0.064 0.091-0.246 0.125-0.487 0.125z"></path>
            <path fill="#3f3d56" style="fill: var(--color3, #3f3d56)" d="M37.284 22.432l-0.030-0.014c-0.006-0.003-0.646-0.315-0.977-0.923-0.329-0.605 1.213-3.173 1.321-3.351l0.002-0.815 0.555-1.501 0.708-0.401-0.607 1.421-0.971 5.585z"></path>
            <path fill="#ffb8b8" style="fill: var(--color2, #ffb8b8)" d="M36.575 31.197l-0.676-0-0.322-2.614 0.998 0-0 2.614z"></path>
            <path fill="#2f2e41" style="fill: var(--color1, #2f2e41)" d="M36.747 31.854l-2.18-0v-0.028c0-0.226 0.089-0.442 0.249-0.601s0.375-0.249 0.6-0.249h1.332l-0 0.878z"></path>
            <path fill="#ffb8b8" style="fill: var(--color2, #ffb8b8)" d="M43.838 30.603l-0.643 0.211-1.118-2.384 0.948-0.311 0.812 2.484z"></path>
            <path fill="#2f2e41" style="fill: var(--color1, #2f2e41)" d="M44.206 31.173l-2.072 0.68-0.009-0.026c-0.070-0.214-0.052-0.448 0.049-0.649s0.279-0.354 0.493-0.424v0l1.266-0.415 0.273 0.834z"></path>
            <path fill="#2f2e41" style="fill: var(--color1, #2f2e41)" d="M42.529 30.176l-1.928-3.225-1.627-3.446-1.464 3.044-0.582 3.942-2.040 0.028 0.008-0.032 3.122-12.432 2.445 0.366-0.111 1.617 0.066 0.094c0.552 0.786 1.123 1.599 0.796 2.476l0.929 2.763 2.055 4.601-1.669 0.203z"></path>
            <path fill="#ff5300" style="fill: var(--color4, #ff5300)" d="M38.13 20.75c-0.354 0-0.759-0.405-0.549-1.098l-0.014-0.010 0.504-2.23c-0.44-0.63 0.14-1.15 0.194-1.196l0.277-0.499 1.221-0.776 0.618 5.142-0.009 0.009c-0.446 0.428-1.944 0.658-2.241 0.658z"></path>
            <path fill="#3f3d56" style="fill: var(--color3, #3f3d56)" d="M40.629 21.91c-0.049 0.001-0.097-0.004-0.144-0.015-0.047-0.012-0.124-0.073-0.243-0.46-0.472-1.54-1.030-6.176-0.625-6.629l0.009-0.010 0.665 0.111c0.055-0.041 0.345-0.244 0.613-0.209 0.055 0.007 0.108 0.025 0.156 0.053s0.089 0.066 0.122 0.111l0.005 0.006 0.212 3.020 0.776 3.554-0.019 0.009c-0.045 0.021-1.014 0.459-1.527 0.459z"></path>
            <path fill="#ffb8b8" style="fill: var(--color2, #ffb8b8)" d="M40.182 20.73c0.076-0.003 0.15-0.022 0.217-0.056s0.126-0.083 0.173-0.143c0.047-0.060 0.080-0.129 0.097-0.203s0.018-0.15 0.002-0.225l0.973-0.672-0.263-0.692-1.361 0.968c-0.122 0.035-0.228 0.113-0.297 0.221s-0.095 0.237-0.075 0.363c0.020 0.126 0.085 0.24 0.184 0.321s0.223 0.123 0.35 0.118z"></path>
            <path fill="#3f3d56" style="fill: var(--color3, #3f3d56)" d="M41.323 19.97l-0.867-0.637 1.219-1.666-0.935-1.654 0.418-1.199 0.027 0.052c0.013 0.024 1.262 2.409 1.479 2.791 0.227 0.398-1.263 2.218-1.326 2.295l-0.015 0.018z"></path>
            <path fill="#e6e6e6" style="fill: var(--color5, #e6e6e6)" d="M21.82 27.466l-0.738-0.311-0.506-3.707h-6.741l-0.549 3.692-0.66 0.331c-0.032 0.016-0.057 0.042-0.072 0.074s-0.019 0.068-0.011 0.103c0.008 0.034 0.028 0.065 0.055 0.087s0.062 0.034 0.097 0.034h9.063c0.036 0 0.071-0.013 0.099-0.035s0.047-0.055 0.054-0.090c0.007-0.036 0.002-0.073-0.015-0.105s-0.044-0.057-0.078-0.071z"></path>
            <path fill="#ccc" style="fill: var(--color6, #ccc)" d="M33.799 23.941h-33.114c-0.174-0-0.34-0.070-0.463-0.193s-0.192-0.29-0.192-0.464v-4.68h34.424v4.68c0 0.174-0.069 0.341-0.192 0.464s-0.289 0.193-0.463 0.193z"></path>
            <path fill="#3f3d56" style="fill: var(--color3, #3f3d56)" d="M34.489 20.815h-34.489v-20.023c0-0.21 0.084-0.412 0.232-0.56s0.349-0.232 0.559-0.232h32.907c0.21 0 0.411 0.084 0.559 0.232s0.232 0.35 0.232 0.56v20.023z"></path>
            <path fill="#fff" style="fill: var(--color7, #fff)" d="M32.429 19.362h-30.369c-0.162-0-0.317-0.065-0.431-0.179s-0.179-0.27-0.179-0.432v-16.687c0-0.162 0.064-0.317 0.179-0.432s0.269-0.179 0.431-0.179h30.369c0.162 0 0.317 0.065 0.431 0.179s0.179 0.27 0.179 0.432v16.687c-0 0.162-0.064 0.317-0.179 0.432s-0.269 0.179-0.431 0.179z"></path>
            <path fill="#ccc" style="fill: var(--color6, #ccc)" d="M25.761 27.807h-17.065c-0.017 0-0.035-0.005-0.049-0.015s-0.024-0.025-0.029-0.042c-0.003-0.011-0.003-0.023-0.001-0.035s0.007-0.023 0.015-0.032c0.007-0.009 0.017-0.017 0.027-0.022s0.022-0.008 0.034-0.008h17.062c0.018-0.001 0.037 0.005 0.051 0.016s0.026 0.027 0.030 0.045c0.003 0.011 0.002 0.023-0 0.034s-0.008 0.022-0.015 0.031c-0.007 0.009-0.016 0.016-0.027 0.021s-0.022 0.008-0.033 0.008z"></path>
            <path fill="#f2f2f2" style="fill: var(--color8, #f2f2f2)" d="M32.104 4.151h-7.332v5.614h7.332v-5.614z"></path>
            <path fill="#fff" style="fill: var(--color7, #fff)" d="M31.74 4.43h-6.604v5.056h6.604v-5.056z"></path>
            <path fill="#3f3d56" style="fill: var(--color3, #3f3d56)" d="M28.554 8.18c0.001 0 0.002 0 0.003-0 0.447-0.023 0.868-0.217 1.178-0.54s0.485-0.753 0.49-1.202-0.161-0.882-0.463-1.213c-0.303-0.331-0.72-0.533-1.166-0.567-0.006-0-0.011 0-0.016 0.002s-0.010 0.005-0.014 0.008c-0.004 0.004-0.007 0.008-0.010 0.013s-0.003 0.010-0.003 0.016l-0.038 3.441c-0 0.011 0.004 0.021 0.012 0.029s0.018 0.012 0.028 0.012z"></path>
            <path fill="#e6e6e6" style="fill: var(--color5, #e6e6e6)" d="M27.173 5.228c0.014 0 0.027 0.006 0.036 0.016l1.182 1.212c0.005 0.005 0.009 0.011 0.011 0.017s0.004 0.013 0.004 0.020l-0.018 1.647c0 0.007-0.002 0.014-0.004 0.020s-0.007 0.012-0.012 0.017c-0.005 0.005-0.011 0.008-0.018 0.011s-0.014 0.003-0.021 0.003c-0.329-0.025-0.644-0.141-0.91-0.335s-0.474-0.459-0.598-0.765-0.162-0.64-0.107-0.966c0.055-0.326 0.199-0.63 0.417-0.878 0.005-0.005 0.010-0.010 0.017-0.013s0.013-0.005 0.021-0.005c0.001 0 0.001-0 0.002 0z"></path>
            <path fill="#ff5300" style="fill: var(--color4, #ff5300)" d="M28.375 4.644c0.013 0 0.026 0.005 0.035 0.014 0.005 0.005 0.009 0.011 0.012 0.017s0.004 0.014 0.004 0.021l-0.017 1.486c-0 0.010-0.003 0.020-0.009 0.029s-0.014 0.015-0.023 0.019-0.020 0.005-0.030 0.003c-0.010-0.002-0.019-0.007-0.026-0.014l-1.032-1.057c-0.005-0.005-0.009-0.011-0.011-0.018s-0.004-0.014-0.003-0.021c0-0.007 0.002-0.014 0.005-0.020s0.007-0.012 0.013-0.017c0.3-0.265 0.68-0.42 1.079-0.441 0.001-0 0.002-0 0.003-0z"></path>
            <path fill="#ff5300" style="fill: var(--color4, #ff5300)" d="M27.844 8.894c-0.001 0.063-0.020 0.124-0.055 0.175s-0.085 0.092-0.143 0.115c-0.058 0.023-0.122 0.029-0.183 0.016s-0.117-0.044-0.161-0.089-0.073-0.102-0.085-0.163c-0.012-0.062-0.005-0.125 0.020-0.183s0.066-0.107 0.118-0.141c0.052-0.034 0.114-0.052 0.176-0.051 0.084 0.001 0.164 0.035 0.223 0.095s0.091 0.141 0.090 0.225z"></path>
            <path fill="#3f3d56" style="fill: var(--color3, #3f3d56)" d="M28.747 8.904c-0.001 0.063-0.020 0.124-0.055 0.175s-0.085 0.092-0.143 0.115c-0.058 0.023-0.122 0.029-0.183 0.016s-0.117-0.044-0.161-0.089-0.073-0.102-0.085-0.163c-0.012-0.062-0.005-0.125 0.020-0.183s0.066-0.107 0.118-0.141c0.052-0.034 0.114-0.052 0.176-0.051 0.084 0.001 0.164 0.035 0.222 0.095s0.091 0.141 0.090 0.225z"></path>
            <path fill="#e6e6e6" style="fill: var(--color5, #e6e6e6)" d="M29.651 8.914c-0.001 0.063-0.020 0.124-0.055 0.175s-0.085 0.092-0.143 0.115c-0.058 0.023-0.122 0.029-0.183 0.016s-0.117-0.044-0.161-0.089-0.073-0.102-0.085-0.163c-0.012-0.062-0.005-0.125 0.020-0.183s0.066-0.107 0.118-0.141c0.052-0.034 0.114-0.052 0.176-0.051 0.084 0.001 0.164 0.035 0.222 0.095s0.091 0.141 0.090 0.225z"></path>
            <path fill="#f2f2f2" style="fill: var(--color8, #f2f2f2)" d="M32.027 10.648h-7.332v5.614h7.332v-5.614z"></path>
            <path fill="#fff" style="fill: var(--color7, #fff)" d="M31.663 10.927h-6.604v5.056h6.604v-5.056z"></path>
            <path fill="#3f3d56" style="fill: var(--color3, #3f3d56)" d="M26.18 12.589c0.151 0 0.274-0.123 0.274-0.275s-0.123-0.275-0.274-0.275-0.274 0.123-0.274 0.275c0 0.152 0.123 0.275 0.274 0.275z"></path>
            <path fill="#3f3d56" style="fill: var(--color3, #3f3d56)" d="M30.585 12.1c0.024-0 0.049 0.005 0.071 0.014s0.043 0.023 0.060 0.040 0.031 0.038 0.040 0.060c0.009 0.023 0.014 0.047 0.014 0.071s-0.005 0.049-0.014 0.071c-0.009 0.023-0.023 0.043-0.040 0.060s-0.038 0.031-0.060 0.040c-0.023 0.009-0.047 0.014-0.071 0.014h-2.884c-0.049 0-0.097-0.020-0.131-0.055s-0.054-0.082-0.054-0.132c0-0.049 0.020-0.097 0.054-0.132s0.082-0.055 0.131-0.055h2.884zM30.585 12.055h-2.884c-0.030-0-0.061 0.006-0.089 0.018s-0.054 0.029-0.075 0.050c-0.022 0.022-0.039 0.047-0.050 0.075s-0.018 0.058-0.018 0.089 0.006 0.061 0.018 0.089c0.012 0.028 0.029 0.054 0.050 0.075s0.047 0.039 0.075 0.050 0.058 0.018 0.089 0.018h2.884c0.030 0 0.061-0.006 0.089-0.018s0.054-0.029 0.075-0.050c0.022-0.022 0.039-0.047 0.050-0.075s0.018-0.058 0.018-0.089-0.006-0.061-0.018-0.089c-0.012-0.028-0.029-0.054-0.050-0.075s-0.047-0.039-0.075-0.050c-0.028-0.012-0.058-0.018-0.089-0.018z"></path>
            <path fill="#ff5300" style="fill: var(--color4, #ff5300)" d="M29.447 12.519h-2.171c-0.061 0-0.12-0.024-0.164-0.068s-0.068-0.102-0.068-0.164c0-0.062 0.024-0.121 0.068-0.164s0.102-0.068 0.164-0.068h2.171c0.061 0 0.12 0.024 0.164 0.068s0.068 0.102 0.068 0.164-0.024 0.121-0.068 0.164c-0.043 0.043-0.102 0.068-0.164 0.068z"></path>
            <path fill="#3f3d56" style="fill: var(--color3, #3f3d56)" d="M26.18 13.73c0.151 0 0.274-0.123 0.274-0.275s-0.123-0.275-0.274-0.275-0.274 0.123-0.274 0.275c0 0.152 0.123 0.275 0.274 0.275z"></path>
            <path fill="#3f3d56" style="fill: var(--color3, #3f3d56)" d="M30.585 13.241c0.024 0 0.049 0.005 0.071 0.014s0.043 0.023 0.060 0.040 0.031 0.038 0.040 0.060c0.009 0.023 0.014 0.047 0.014 0.071s-0.005 0.049-0.014 0.071c-0.009 0.023-0.023 0.043-0.040 0.060s-0.038 0.031-0.060 0.040c-0.023 0.009-0.047 0.014-0.071 0.014h-2.884c-0.049 0-0.097-0.020-0.131-0.055s-0.054-0.082-0.054-0.132c0-0.049 0.020-0.097 0.054-0.132s0.082-0.055 0.131-0.055h2.884zM30.585 13.196h-2.884c-0.061 0-0.12 0.024-0.164 0.068s-0.068 0.103-0.068 0.164c0 0.061 0.024 0.12 0.068 0.164s0.102 0.068 0.164 0.068h2.884c0.061 0 0.12-0.024 0.164-0.068s0.068-0.103 0.068-0.164c0-0.062-0.024-0.121-0.068-0.164s-0.102-0.068-0.164-0.068z"></path>
            <path fill="#ff5300" style="fill: var(--color4, #ff5300)" d="M30.267 13.66h-2.991c-0.061 0-0.12-0.024-0.164-0.068s-0.068-0.103-0.068-0.164c0-0.061 0.024-0.12 0.068-0.164s0.102-0.068 0.164-0.068h2.991c0.061 0 0.12 0.024 0.164 0.068s0.068 0.103 0.068 0.164c0 0.062-0.024 0.121-0.068 0.164s-0.102 0.068-0.164 0.068z"></path>
            <path fill="#3f3d56" style="fill: var(--color3, #3f3d56)" d="M26.18 14.871c0.151 0 0.274-0.123 0.274-0.275s-0.123-0.275-0.274-0.275-0.274 0.123-0.274 0.275c0 0.152 0.123 0.275 0.274 0.275z"></path>
            <path fill="#3f3d56" style="fill: var(--color3, #3f3d56)" d="M30.585 14.382c0.024-0 0.049 0.005 0.071 0.014s0.043 0.023 0.060 0.040c0.017 0.017 0.031 0.038 0.040 0.060s0.014 0.047 0.014 0.071c0 0.025-0.005 0.049-0.014 0.071s-0.023 0.043-0.040 0.060-0.038 0.031-0.060 0.040c-0.023 0.009-0.047 0.014-0.071 0.014h-2.884c-0.049 0-0.097-0.020-0.131-0.055s-0.054-0.082-0.054-0.132c0-0.049 0.020-0.097 0.054-0.132s0.082-0.055 0.131-0.055h2.884zM30.585 14.337h-2.884c-0.061 0-0.12 0.024-0.164 0.068s-0.068 0.102-0.068 0.164c0 0.062 0.024 0.121 0.068 0.164s0.102 0.068 0.164 0.068h2.884c0.061 0 0.12-0.024 0.164-0.068s0.068-0.102 0.068-0.164-0.024-0.121-0.068-0.164c-0.043-0.043-0.102-0.068-0.164-0.068z"></path>
            <path fill="#ff5300" style="fill: var(--color4, #ff5300)" d="M28.491 14.801h-1.214c-0.030 0-0.061-0.006-0.089-0.018s-0.054-0.029-0.075-0.050c-0.021-0.022-0.039-0.047-0.050-0.075s-0.018-0.058-0.018-0.089 0.006-0.061 0.018-0.089c0.012-0.028 0.029-0.054 0.050-0.075s0.047-0.039 0.075-0.050c0.028-0.012 0.058-0.018 0.089-0.018h1.214c0.061 0 0.12 0.025 0.163 0.068s0.068 0.102 0.068 0.164-0.024 0.12-0.068 0.164c-0.043 0.043-0.102 0.068-0.163 0.068z"></path>
            <path fill="#f2f2f2" style="fill: var(--color8, #f2f2f2)" d="M23.074 5.144h-20.485v10.521h20.485v-10.521z"></path>
            <path fill="#fff" style="fill: var(--color7, #fff)" d="M22.391 5.667h-19.12v9.476h19.12v-9.476z"></path>
            <path fill="#3f3d56" style="fill: var(--color3, #3f3d56)" d="M20.020 13.697h-13.938c-0.012 0-0.023-0.005-0.031-0.013s-0.013-0.019-0.013-0.031v-6.695c0-0.012 0.005-0.023 0.013-0.031s0.019-0.013 0.031-0.013c0.012 0 0.023 0.005 0.031 0.013s0.013 0.019 0.013 0.031v6.651h13.894c0.012 0 0.023 0.005 0.031 0.013s0.013 0.019 0.013 0.031c0 0.012-0.005 0.023-0.013 0.031s-0.019 0.013-0.031 0.013z"></path>
            <path fill="#ff5300" style="fill: var(--color4, #ff5300)" d="M9.060 13.216h-1.268c-0.034-0-0.067-0.014-0.091-0.038s-0.038-0.057-0.038-0.092v-1.751c0-0.034 0.014-0.067 0.038-0.092s0.057-0.038 0.091-0.038h1.268c0.034 0 0.067 0.014 0.092 0.038s0.038 0.057 0.038 0.092v1.751c-0 0.034-0.014 0.067-0.038 0.092s-0.057 0.038-0.092 0.038z"></path>
            <path fill="#ff5300" style="fill: var(--color4, #ff5300)" d="M11.372 13.216h-1.268c-0.034-0-0.067-0.014-0.091-0.038s-0.038-0.057-0.038-0.092v-3.412c0-0.034 0.014-0.067 0.038-0.092s0.057-0.038 0.091-0.038h1.268c0.034 0 0.067 0.014 0.091 0.038s0.038 0.057 0.038 0.092v3.412c0 0.034-0.014 0.067-0.038 0.092s-0.057 0.038-0.091 0.038z"></path>
            <path fill="#ff5300" style="fill: var(--color4, #ff5300)" d="M13.684 13.216h-1.268c-0.034-0-0.067-0.014-0.092-0.038s-0.038-0.057-0.038-0.092v-1.751c0-0.034 0.014-0.067 0.038-0.092s0.057-0.038 0.092-0.038h1.268c0.034 0 0.067 0.014 0.091 0.038s0.038 0.057 0.038 0.092v1.751c0 0.034-0.014 0.067-0.038 0.092s-0.057 0.038-0.091 0.038z"></path>
            <path fill="#ff5300" style="fill: var(--color4, #ff5300)" d="M15.995 13.216h-1.268c-0.034 0.001-0.066-0.012-0.090-0.035s-0.038-0.055-0.039-0.089v-4.080c0.001-0.034 0.015-0.066 0.039-0.089s0.057-0.036 0.090-0.035h1.268c0.034-0.001 0.066 0.012 0.090 0.035s0.038 0.055 0.039 0.089v4.080c-0.001 0.034-0.015 0.066-0.039 0.089s-0.057 0.036-0.090 0.035z"></path>
            <path fill="#ff5300" style="fill: var(--color4, #ff5300)" d="M18.307 13.216h-1.268c-0.034-0-0.067-0.014-0.092-0.038s-0.038-0.057-0.038-0.092v-5.248c0-0.034 0.014-0.067 0.038-0.092s0.057-0.038 0.092-0.038h1.268c0.034 0 0.067 0.014 0.092 0.038s0.038 0.057 0.038 0.092v5.248c0 0.034-0.014 0.067-0.038 0.092s-0.057 0.038-0.092 0.038z"></path>
            <path fill="#3f3d56" style="fill: var(--color3, #3f3d56)" d="M8.426 10.681c0.145 0 0.262-0.117 0.262-0.262s-0.117-0.262-0.262-0.262-0.262 0.117-0.262 0.262c0 0.145 0.117 0.262 0.262 0.262z"></path>
            <path fill="#3f3d56" style="fill: var(--color3, #3f3d56)" d="M10.738 8.976c0.145 0 0.262-0.117 0.262-0.262s-0.117-0.262-0.262-0.262-0.262 0.117-0.262 0.262c0 0.145 0.117 0.262 0.262 0.262z"></path>
            <path fill="#3f3d56" style="fill: var(--color3, #3f3d56)" d="M13.050 10.681c0.145 0 0.262-0.117 0.262-0.262s-0.117-0.262-0.262-0.262-0.262 0.117-0.262 0.262c0 0.145 0.117 0.262 0.262 0.262z"></path>
            <path fill="#3f3d56" style="fill: var(--color3, #3f3d56)" d="M15.362 8.146c0.145 0 0.262-0.117 0.262-0.262s-0.117-0.262-0.262-0.262c-0.145 0-0.262 0.117-0.262 0.262s0.117 0.262 0.262 0.262z"></path>
            <path fill="#3f3d56" style="fill: var(--color3, #3f3d56)" d="M17.673 7.184c0.145 0 0.262-0.117 0.262-0.262s-0.117-0.262-0.262-0.262c-0.145 0-0.262 0.117-0.262 0.262s0.117 0.262 0.262 0.262z"></path>
            <path fill="#3f3d56" style="fill: var(--color3, #3f3d56)" d="M13.055 10.477l-2.317-1.739-2.286 1.716-0.052-0.070 2.338-1.755 2.306 1.731 2.292-2.513 0.009-0.004 2.312-0.933 0.033 0.081-2.303 0.93-2.332 2.557z"></path>
            <path fill="#ccc" style="fill: var(--color6, #ccc)" d="M47.614 32h-19.267c-0.013 0-0.026-0.005-0.036-0.015s-0.015-0.022-0.015-0.036c0-0.014 0.005-0.026 0.015-0.036s0.022-0.015 0.036-0.015h19.267c0.013 0 0.026 0.005 0.036 0.015s0.015 0.022 0.015 0.036c0 0.013-0.005 0.026-0.015 0.036s-0.022 0.015-0.036 0.015z"></path>
        </symbol>

        <symbol id="about-section-icon" viewBox="0 0 62 32">
            <path fill="#f2f2f2" style="fill: var(--color1, #f2f2f2)" d="M19.385 3.977c0.247 0 0.447-0.2 0.447-0.448s-0.2-0.448-0.447-0.448c-0.247 0-0.447 0.2-0.447 0.448s0.2 0.448 0.447 0.448z"></path>
            <path fill="#f2f2f2" style="fill: var(--color1, #f2f2f2)" d="M17.603 3.977c0.247 0 0.447-0.2 0.447-0.448s-0.2-0.448-0.447-0.448c-0.247 0-0.447 0.2-0.447 0.448s0.2 0.448 0.447 0.448z"></path>
            <path fill="#f2f2f2" style="fill: var(--color1, #f2f2f2)" d="M15.821 3.977c0.247 0 0.447-0.2 0.447-0.448s-0.2-0.448-0.447-0.448c-0.247 0-0.447 0.2-0.447 0.448s0.2 0.448 0.447 0.448z"></path>
            <path fill="#f2f2f2" style="fill: var(--color1, #f2f2f2)" d="M14.039 3.977c0.247 0 0.447-0.2 0.447-0.448s-0.2-0.448-0.447-0.448c-0.247 0-0.447 0.2-0.447 0.448s0.2 0.448 0.447 0.448z"></path>
            <path fill="#f2f2f2" style="fill: var(--color1, #f2f2f2)" d="M19.385 5.846c0.247 0 0.447-0.2 0.447-0.448s-0.2-0.448-0.447-0.448c-0.247 0-0.447 0.2-0.447 0.448s0.2 0.448 0.447 0.448z"></path>
            <path fill="#f2f2f2" style="fill: var(--color1, #f2f2f2)" d="M17.603 5.846c0.247 0 0.447-0.2 0.447-0.448s-0.2-0.448-0.447-0.448c-0.247 0-0.447 0.2-0.447 0.448s0.2 0.448 0.447 0.448z"></path>
            <path fill="#f2f2f2" style="fill: var(--color1, #f2f2f2)" d="M15.821 5.846c0.247 0 0.447-0.2 0.447-0.448s-0.2-0.448-0.447-0.448c-0.247 0-0.447 0.2-0.447 0.448s0.2 0.448 0.447 0.448z"></path>
            <path fill="#f2f2f2" style="fill: var(--color1, #f2f2f2)" d="M14.039 5.846c0.247 0 0.447-0.2 0.447-0.448s-0.2-0.448-0.447-0.448c-0.247 0-0.447 0.2-0.447 0.448s0.2 0.448 0.447 0.448z"></path>
            <path fill="#f2f2f2" style="fill: var(--color1, #f2f2f2)" d="M19.385 7.715c0.247 0 0.447-0.2 0.447-0.448s-0.2-0.448-0.447-0.448c-0.247 0-0.447 0.2-0.447 0.448s0.2 0.448 0.447 0.448z"></path>
            <path fill="#f2f2f2" style="fill: var(--color1, #f2f2f2)" d="M17.603 7.715c0.247 0 0.447-0.2 0.447-0.448s-0.2-0.448-0.447-0.448c-0.247 0-0.447 0.2-0.447 0.448s0.2 0.448 0.447 0.448z"></path>
            <path fill="#f2f2f2" style="fill: var(--color1, #f2f2f2)" d="M15.821 7.715c0.247 0 0.447-0.2 0.447-0.448s-0.2-0.448-0.447-0.448c-0.247 0-0.447 0.2-0.447 0.448s0.2 0.448 0.447 0.448z"></path>
            <path fill="#f2f2f2" style="fill: var(--color1, #f2f2f2)" d="M14.039 7.715c0.247 0 0.447-0.2 0.447-0.448s-0.2-0.448-0.447-0.448c-0.247 0-0.447 0.2-0.447 0.448s0.2 0.448 0.447 0.448z"></path>
            <path fill="#f2f2f2" style="fill: var(--color1, #f2f2f2)" d="M19.385 9.584c0.247 0 0.447-0.2 0.447-0.448s-0.2-0.448-0.447-0.448c-0.247 0-0.447 0.2-0.447 0.448s0.2 0.448 0.447 0.448z"></path>
            <path fill="#f2f2f2" style="fill: var(--color1, #f2f2f2)" d="M17.603 9.584c0.247 0 0.447-0.2 0.447-0.448s-0.2-0.448-0.447-0.448c-0.247 0-0.447 0.2-0.447 0.448s0.2 0.448 0.447 0.448z"></path>
            <path fill="#f2f2f2" style="fill: var(--color1, #f2f2f2)" d="M15.821 9.584c0.247 0 0.447-0.2 0.447-0.448s-0.2-0.448-0.447-0.448c-0.247 0-0.447 0.2-0.447 0.448s0.2 0.448 0.447 0.448z"></path>
            <path fill="#f2f2f2" style="fill: var(--color1, #f2f2f2)" d="M14.039 9.584c0.247 0 0.447-0.2 0.447-0.448s-0.2-0.448-0.447-0.448c-0.247 0-0.447 0.2-0.447 0.448s0.2 0.448 0.447 0.448z"></path>
            <path fill="#f2f2f2" style="fill: var(--color1, #f2f2f2)" d="M19.385 11.453c0.247 0 0.447-0.2 0.447-0.448s-0.2-0.448-0.447-0.448c-0.247 0-0.447 0.2-0.447 0.448s0.2 0.448 0.447 0.448z"></path>
            <path fill="#f2f2f2" style="fill: var(--color1, #f2f2f2)" d="M17.603 11.453c0.247 0 0.447-0.2 0.447-0.448s-0.2-0.448-0.447-0.448c-0.247 0-0.447 0.2-0.447 0.448s0.2 0.448 0.447 0.448z"></path>
            <path fill="#f2f2f2" style="fill: var(--color1, #f2f2f2)" d="M15.821 11.453c0.247 0 0.447-0.2 0.447-0.448s-0.2-0.448-0.447-0.448c-0.247 0-0.447 0.2-0.447 0.448s0.2 0.448 0.447 0.448z"></path>
            <path fill="#f2f2f2" style="fill: var(--color1, #f2f2f2)" d="M14.039 11.453c0.247 0 0.447-0.2 0.447-0.448s-0.2-0.448-0.447-0.448c-0.247 0-0.447 0.2-0.447 0.448s0.2 0.448 0.447 0.448z"></path>
            <path fill="#f2f2f2" style="fill: var(--color1, #f2f2f2)" d="M19.385 13.322c0.247 0 0.447-0.2 0.447-0.448s-0.2-0.448-0.447-0.448c-0.247 0-0.447 0.2-0.447 0.448s0.2 0.448 0.447 0.448z"></path>
            <path fill="#f2f2f2" style="fill: var(--color1, #f2f2f2)" d="M17.603 13.322c0.247 0 0.447-0.2 0.447-0.448s-0.2-0.448-0.447-0.448c-0.247 0-0.447 0.2-0.447 0.448s0.2 0.448 0.447 0.448z"></path>
            <path fill="#f2f2f2" style="fill: var(--color1, #f2f2f2)" d="M15.821 13.322c0.247 0 0.447-0.2 0.447-0.448s-0.2-0.448-0.447-0.448c-0.247 0-0.447 0.2-0.447 0.448s0.2 0.448 0.447 0.448z"></path>
            <path fill="#f2f2f2" style="fill: var(--color1, #f2f2f2)" d="M14.039 13.322c0.247 0 0.447-0.2 0.447-0.448s-0.2-0.448-0.447-0.448c-0.247 0-0.447 0.2-0.447 0.448s0.2 0.448 0.447 0.448z"></path>
            <path fill="#ccc" style="fill: var(--color2, #ccc)" d="M15.456 25.087v0.139c0 0.229 0.091 0.449 0.253 0.612s0.382 0.253 0.611 0.254h6.223c0.229-0 0.449-0.091 0.611-0.254s0.253-0.382 0.253-0.612v-0.139c0-0.203-0.071-0.399-0.201-0.554-0.043-0.052-0.092-0.098-0.146-0.138 0 0-3.421-0.078-3.421-0.173h-3.32c-0.229 0-0.449 0.092-0.611 0.254s-0.253 0.382-0.254 0.611z"></path>
            <path fill="#ccc" style="fill: var(--color2, #ccc)" d="M19.931 26.056h-0.899v5.815h0.899v-5.815z"></path>
            <path fill="#ccc" style="fill: var(--color2, #ccc)" d="M22.489 31.839c0 0.097-1.362 0.038-3.042 0.038s-3.042 0.060-3.042-0.038c0-0.097 1.362-0.868 3.042-0.868s3.042 0.771 3.042 0.868z"></path>
            <path fill="#a0616a" style="fill: var(--color3, #a0616a)" d="M21.253 24.969c0.065-0.087 0.11-0.188 0.132-0.294s0.020-0.216-0.005-0.322c-0.025-0.106-0.073-0.205-0.14-0.29s-0.153-0.154-0.25-0.203l-1.905-6.499-1.451 0.711 2.329 6.165c-0.071 0.169-0.077 0.358-0.018 0.531s0.18 0.319 0.338 0.409c0.159 0.090 0.346 0.119 0.524 0.081s0.337-0.141 0.446-0.288v0z"></path>
            <path fill="#ff5300" style="fill: var(--color4, #ff5300)" d="M19.517 18.446l-1.624 0.44c-0.046 0.012-0.095 0.015-0.142 0.007s-0.092-0.026-0.132-0.053-0.073-0.062-0.098-0.103c-0.025-0.041-0.041-0.087-0.046-0.134l-0.196-1.667c-0.063-0.237-0.029-0.489 0.094-0.701s0.325-0.367 0.561-0.43c0.236-0.063 0.488-0.030 0.701 0.092s0.367 0.324 0.431 0.561l0.669 1.534c0.019 0.044 0.029 0.091 0.028 0.139s-0.012 0.095-0.033 0.138c-0.021 0.043-0.050 0.081-0.087 0.112s-0.080 0.053-0.126 0.066v0z"></path>
            <path fill="#a0616a" style="fill: var(--color3, #a0616a)" d="M21.678 31.157h0.848l0.403-2.201h-1.251l0 2.201z"></path>
            <path fill="#2f2e41" style="fill: var(--color5, #2f2e41)" d="M21.462 30.881l1.669-0c0.14 0 0.278 0.027 0.407 0.081s0.246 0.132 0.345 0.231c0.099 0.099 0.177 0.216 0.231 0.346s0.081 0.268 0.081 0.408v0.035l-2.733 0v-1.1z"></path>
            <path fill="#2f2e41" style="fill: var(--color5, #2f2e41)" d="M22.662 29.977c-0.010 0-0.020-0-0.030-0.001l-1.173-0.085c-0.047-0.005-0.093-0.020-0.134-0.045s-0.075-0.059-0.1-0.099c-0.026-0.040-0.041-0.086-0.046-0.134s0.001-0.095 0.017-0.14l1.57-3.531c0.011-0.032 0.016-0.065 0.014-0.098s-0.012-0.066-0.027-0.096c-0.015-0.030-0.037-0.056-0.064-0.077s-0.057-0.036-0.089-0.044c-0.738-0.193-2.633-0.708-4.272-1.31-0.703-0.258-1.145-0.631-1.315-1.108-0.224-0.629 0.108-1.203 0.122-1.227l0.011-0.019 1.543 0.14 1.673 0.142 3.666 1.968c0.307 0.166 0.541 0.442 0.654 0.773s0.098 0.692-0.044 1.012l-1.69 3.794c-0.024 0.055-0.064 0.102-0.115 0.134s-0.109 0.050-0.169 0.050z"></path>
            <path fill="#a0616a" style="fill: var(--color3, #a0616a)" d="M18.956 15.117c0.938 0 1.698-0.761 1.698-1.7s-0.76-1.7-1.698-1.7c-0.938 0-1.698 0.761-1.698 1.7s0.76 1.7 1.698 1.7z"></path>
            <path fill="#a0616a" style="fill: var(--color3, #a0616a)" d="M21.194 31.088l0.848-0 0.403-2.201h-1.251l0 2.201z"></path>
            <path fill="#2f2e41" style="fill: var(--color5, #2f2e41)" d="M20.977 30.811h1.669c0.14 0 0.278 0.027 0.407 0.081s0.246 0.132 0.345 0.231c0.099 0.099 0.177 0.216 0.231 0.346s0.081 0.268 0.081 0.407v0.035l-2.733 0-0-1.1z"></path>
            <path fill="#2f2e41" style="fill: var(--color5, #2f2e41)" d="M22.178 30.185c-0.010 0-0.020-0-0.030-0.001l-1.173-0.085c-0.047-0.005-0.093-0.020-0.134-0.045s-0.075-0.059-0.1-0.099c-0.026-0.040-0.041-0.086-0.046-0.134s0.001-0.095 0.017-0.14l1.57-3.531c0.011-0.032 0.016-0.065 0.014-0.098s-0.012-0.066-0.027-0.096c-0.015-0.030-0.037-0.056-0.064-0.077s-0.057-0.036-0.090-0.044c-0.738-0.193-2.632-0.708-4.272-1.31-0.703-0.258-1.145-0.631-1.315-1.108-0.224-0.629 0.108-1.203 0.122-1.227l0.011-0.019 1.543 0.14 1.673 0.142 3.666 1.968c0.307 0.166 0.541 0.442 0.654 0.773s0.098 0.692-0.044 1.012l-1.69 3.794c-0.024 0.055-0.064 0.102-0.115 0.134s-0.109 0.050-0.169 0.050z"></path>
            <path fill="#2f2e41" style="fill: var(--color5, #2f2e41)" d="M19.48 16.081l-1.798-0.623c0 0-1.129 0.868-0.587 3.021 0.283 1.111 0.201 2.284-0.235 3.345-0.052 0.131-0.113 0.259-0.181 0.383 0 0 2.005 2.423 3.872 0.623l-0.726-3.496c0 0 1.141-2.319-0.346-3.253z"></path>
            <path fill="#2f2e41" style="fill: var(--color5, #2f2e41)" d="M19.167 15.175c-0.242-0.362-0.433-0.864-0.166-1.209 0.263-0.34 0.781-0.29 1.183-0.441 0.56-0.21 0.885-0.869 0.784-1.459s-0.575-1.079-1.138-1.28c-0.564-0.2-1.2-0.135-1.752 0.095-0.68 0.284-1.263 0.833-1.507 1.528s-0.114 1.53 0.393 2.065c0.544 0.573 1.397 0.726 2.187 0.717z"></path>
            <path fill="#2f2e41" style="fill: var(--color5, #2f2e41)" d="M17.587 12.085c-0.305 0.248-0.769 0.138-1.096-0.080s-0.592-0.528-0.946-0.699c-0.624-0.301-1.378-0.101-1.985 0.233s-1.145 0.794-1.786 1.056c-0.641 0.262-1.459 0.275-1.945-0.22-0.119 0.347-0.129 0.722-0.028 1.074s0.309 0.665 0.594 0.895c0.285 0.23 0.634 0.366 1 0.39s0.729-0.065 1.042-0.256c0.702-0.428 1.090-1.327 1.878-1.563 0.436-0.131 0.904-0.025 1.345 0.089s0.9 0.237 1.345 0.14c0.445-0.097 0.861-0.497 0.804-0.949l-0.222-0.109z"></path>
            <path fill="#ff5300" style="fill: var(--color4, #ff5300)" d="M23.115 28.105c-0.18-1.169-0.18-2.359 0-3.529 0.012-0.070 0.047-0.133 0.101-0.179s0.122-0.071 0.192-0.071h2.757c0.045-0 0.089 0.010 0.129 0.029s0.076 0.048 0.103 0.083c0.028 0.036 0.048 0.077 0.058 0.122s0.009 0.090-0.002 0.135c-0.258 1.081-0.258 2.209 0 3.29 0.011 0.044 0.011 0.090 0.002 0.135s-0.029 0.086-0.058 0.122c-0.027 0.035-0.063 0.064-0.103 0.083s-0.084 0.029-0.129 0.029h-2.757c-0.070 0-0.139-0.025-0.192-0.071s-0.089-0.109-0.101-0.178z"></path>
            <path fill="#fff" style="fill: var(--color6, #fff)" d="M25.317 26.035h-1.447c-0.055 0-0.108-0.022-0.147-0.061s-0.061-0.092-0.061-0.147v-0.081c0-0.055 0.022-0.108 0.061-0.147s0.092-0.061 0.147-0.061h1.447c0.055 0 0.108 0.022 0.147 0.061s0.061 0.092 0.061 0.147v0.081c0 0.055-0.022 0.108-0.061 0.147s-0.092 0.061-0.147 0.061z"></path>
            <path fill="#fff" style="fill: var(--color6, #fff)" d="M25.317 26.89h-1.447c-0.055-0-0.108-0.022-0.147-0.061s-0.061-0.092-0.061-0.147v-0.081c0-0.055 0.022-0.108 0.061-0.147s0.092-0.061 0.147-0.061h1.447c0.055 0 0.108 0.022 0.147 0.061s0.061 0.092 0.061 0.147v0.081c0 0.055-0.022 0.108-0.061 0.147s-0.092 0.061-0.147 0.061z"></path>
            <path fill="#a0616a" style="fill: var(--color3, #a0616a)" d="M23.84 24.658c0.041-0.101 0.060-0.209 0.054-0.318s-0.034-0.215-0.085-0.311-0.122-0.18-0.208-0.246c-0.087-0.066-0.186-0.111-0.293-0.134l-3.467-5.816-1.227 1.052 3.794 5.387c-0.026 0.181 0.014 0.366 0.115 0.519s0.253 0.264 0.43 0.311c0.177 0.048 0.364 0.029 0.528-0.053s0.291-0.221 0.36-0.391v0z"></path>
            <path fill="#2f2e41" style="fill: var(--color5, #2f2e41)" d="M20.531 18.776l-1.462 0.832c-0.042 0.024-0.088 0.038-0.136 0.042s-0.096-0.002-0.141-0.018c-0.045-0.016-0.086-0.042-0.12-0.075s-0.061-0.074-0.078-0.119l-0.606-1.566c-0.12-0.214-0.15-0.466-0.084-0.703s0.223-0.436 0.436-0.557c0.213-0.121 0.465-0.151 0.701-0.086s0.436 0.222 0.558 0.435l1.030 1.318c0.029 0.038 0.050 0.081 0.062 0.128s0.012 0.095 0.003 0.142-0.029 0.091-0.056 0.13c-0.028 0.039-0.064 0.071-0.106 0.095z"></path>
            <path fill="#3f3d56" style="fill: var(--color7, #3f3d56)" d="M36.091 20.819h-28.073c-0.119 0-0.234 0.047-0.318 0.132s-0.132 0.199-0.132 0.318c0 0.119 0.047 0.234 0.132 0.318s0.199 0.132 0.318 0.132h0.795v9.795c0 0.119 0.047 0.234 0.132 0.318s0.199 0.132 0.318 0.132 0.234-0.047 0.318-0.132c0.084-0.084 0.132-0.199 0.132-0.318v-8.931l5.039 9.143c0.060 0.103 0.158 0.178 0.273 0.209s0.238 0.015 0.341-0.045c0.103-0.059 0.178-0.158 0.209-0.273s0.015-0.238-0.044-0.341l-5.267-9.557 24.065 0.006-5.264 9.552c-0.059 0.103-0.076 0.226-0.045 0.341s0.106 0.214 0.209 0.273 0.226 0.076 0.341 0.045c0.115-0.031 0.213-0.106 0.273-0.209l4.485-8.139v7.927c0 0.119 0.047 0.234 0.132 0.318s0.199 0.132 0.318 0.132 0.233-0.047 0.318-0.132c0.084-0.084 0.132-0.199 0.132-0.318v-9.558l0.131-0.237h0.734c0.119 0 0.233-0.047 0.318-0.132s0.132-0.199 0.132-0.318-0.047-0.234-0.132-0.318c-0.084-0.084-0.199-0.132-0.318-0.132z"></path>
            <path fill="#ccc" style="fill: var(--color2, #ccc)" d="M24.475 20.542h-5.462c-0.134 0-0.242 0.108-0.242 0.242s0.108 0.242 0.242 0.242h5.462c0.134 0 0.242-0.108 0.242-0.242s-0.108-0.242-0.242-0.242z"></path>
            <path fill="#ccc" style="fill: var(--color2, #ccc)" d="M28.14 21.026h-6.154c-0.119 0-0.233-0.047-0.318-0.132s-0.132-0.199-0.132-0.318v-3.392c0-0.119 0.047-0.234 0.132-0.318s0.198-0.132 0.318-0.132h6.154c0.119 0 0.233 0.048 0.318 0.132s0.132 0.199 0.132 0.318v3.392c0 0.119-0.047 0.234-0.132 0.318s-0.198 0.132-0.318 0.132z"></path>
            <path fill="#fff" style="fill: var(--color6, #fff)" d="M25.063 19.296c0.229 0 0.415-0.186 0.415-0.415s-0.186-0.415-0.415-0.415c-0.229 0-0.415 0.186-0.415 0.415s0.186 0.415 0.415 0.415z"></path>
            <path fill="#e6e6e6" style="fill: var(--color8, #e6e6e6)" d="M32.836 12.669v-12.149c0-0.138 0.055-0.27 0.153-0.368s0.23-0.152 0.367-0.153h9.592c0.138 0 0.27 0.055 0.367 0.153s0.152 0.23 0.153 0.368v12.149c-0 0.138-0.055 0.27-0.153 0.368s-0.23 0.153-0.367 0.153h-9.592c-0.138-0-0.27-0.055-0.367-0.153s-0.152-0.23-0.153-0.368zM33.356 0.116c-0.107 0-0.21 0.043-0.286 0.119s-0.118 0.179-0.119 0.286v12.149c0 0.107 0.043 0.21 0.119 0.286s0.179 0.119 0.286 0.119h9.592c0.107-0 0.21-0.043 0.286-0.119s0.118-0.179 0.119-0.286v-12.149c-0-0.107-0.043-0.21-0.119-0.286s-0.178-0.119-0.286-0.119h-9.592z"></path>
            <path fill="#ff5300" style="fill: var(--color4, #ff5300)" d="M38.69 5.579v-2.495c0-0.069 0.028-0.135 0.076-0.184s0.115-0.076 0.184-0.076h2.111c0.069 0 0.135 0.028 0.184 0.076s0.076 0.115 0.076 0.184v2.495c-0 0.069-0.028 0.135-0.076 0.184s-0.115 0.076-0.184 0.076h-2.111c-0.069-0-0.135-0.028-0.184-0.076s-0.076-0.115-0.076-0.184z"></path>
            <path fill="#ccc" style="fill: var(--color2, #ccc)" d="M34.587 6.736v-2.495c0-0.069 0.028-0.135 0.076-0.184s0.115-0.076 0.184-0.076h2.111c0.069 0 0.135 0.028 0.184 0.076s0.076 0.115 0.076 0.184v2.495c0 0.069-0.028 0.135-0.076 0.184s-0.115 0.076-0.184 0.076h-2.111c-0.069-0-0.135-0.028-0.184-0.076s-0.076-0.115-0.076-0.184z"></path>
            <path fill="#ff6584" style="fill: var(--color9, #ff6584)" d="M37.881 10.265v-2.495c0-0.069 0.028-0.135 0.076-0.184s0.115-0.076 0.184-0.076h2.111c0.069 0 0.135 0.028 0.184 0.076s0.076 0.115 0.076 0.184v2.495c-0 0.069-0.028 0.135-0.076 0.184s-0.115 0.076-0.184 0.076h-2.111c-0.069-0-0.135-0.028-0.184-0.076s-0.076-0.115-0.076-0.184z"></path>
            <path fill="#f2f2f2" style="fill: var(--color1, #f2f2f2)" d="M53.984 1.266c0.247 0 0.447-0.2 0.447-0.448s-0.2-0.448-0.447-0.448c-0.247 0-0.447 0.2-0.447 0.448s0.2 0.448 0.447 0.448z"></path>
            <path fill="#f2f2f2" style="fill: var(--color1, #f2f2f2)" d="M53.984 3.050c0.247 0 0.447-0.2 0.447-0.448s-0.2-0.448-0.447-0.448c-0.247 0-0.447 0.2-0.447 0.448s0.2 0.448 0.447 0.448z"></path>
            <path fill="#f2f2f2" style="fill: var(--color1, #f2f2f2)" d="M53.984 4.834c0.247 0 0.447-0.2 0.447-0.448s-0.2-0.448-0.447-0.448c-0.247 0-0.447 0.2-0.447 0.448s0.2 0.448 0.447 0.448z"></path>
            <path fill="#f2f2f2" style="fill: var(--color1, #f2f2f2)" d="M53.984 6.618c0.247 0 0.447-0.2 0.447-0.448s-0.2-0.448-0.447-0.448c-0.247 0-0.447 0.2-0.447 0.448s0.2 0.448 0.447 0.448z"></path>
            <path fill="#f2f2f2" style="fill: var(--color1, #f2f2f2)" d="M52.117 1.266c0.247 0 0.447-0.2 0.447-0.448s-0.2-0.448-0.447-0.448c-0.247 0-0.447 0.2-0.447 0.448s0.2 0.448 0.447 0.448z"></path>
            <path fill="#f2f2f2" style="fill: var(--color1, #f2f2f2)" d="M52.117 3.050c0.247 0 0.447-0.2 0.447-0.448s-0.2-0.448-0.447-0.448c-0.247 0-0.447 0.2-0.447 0.448s0.2 0.448 0.447 0.448z"></path>
            <path fill="#f2f2f2" style="fill: var(--color1, #f2f2f2)" d="M52.117 4.834c0.247 0 0.447-0.2 0.447-0.448s-0.2-0.448-0.447-0.448c-0.247 0-0.447 0.2-0.447 0.448s0.2 0.448 0.447 0.448z"></path>
            <path fill="#f2f2f2" style="fill: var(--color1, #f2f2f2)" d="M52.117 6.618c0.247 0 0.447-0.2 0.447-0.448s-0.2-0.448-0.447-0.448c-0.247 0-0.447 0.2-0.447 0.448s0.2 0.448 0.447 0.448z"></path>
            <path fill="#f2f2f2" style="fill: var(--color1, #f2f2f2)" d="M50.25 1.266c0.247 0 0.447-0.2 0.447-0.448s-0.2-0.448-0.447-0.448c-0.247 0-0.447 0.2-0.447 0.448s0.2 0.448 0.447 0.448z"></path>
            <path fill="#f2f2f2" style="fill: var(--color1, #f2f2f2)" d="M50.25 3.050c0.247 0 0.447-0.2 0.447-0.448s-0.2-0.448-0.447-0.448c-0.247 0-0.447 0.2-0.447 0.448s0.2 0.448 0.447 0.448z"></path>
            <path fill="#f2f2f2" style="fill: var(--color1, #f2f2f2)" d="M50.25 4.834c0.247 0 0.447-0.2 0.447-0.448s-0.2-0.448-0.447-0.448c-0.247 0-0.447 0.2-0.447 0.448s0.2 0.448 0.447 0.448z"></path>
            <path fill="#f2f2f2" style="fill: var(--color1, #f2f2f2)" d="M50.25 6.618c0.247 0 0.447-0.2 0.447-0.448s-0.2-0.448-0.447-0.448c-0.247 0-0.447 0.2-0.447 0.448s0.2 0.448 0.447 0.448z"></path>
            <path fill="#f2f2f2" style="fill: var(--color1, #f2f2f2)" d="M48.383 1.266c0.247 0 0.447-0.2 0.447-0.448s-0.2-0.448-0.447-0.448c-0.247 0-0.447 0.2-0.447 0.448s0.2 0.448 0.447 0.448z"></path>
            <path fill="#f2f2f2" style="fill: var(--color1, #f2f2f2)" d="M48.383 3.050c0.247 0 0.447-0.2 0.447-0.448s-0.2-0.448-0.447-0.448c-0.247 0-0.447 0.2-0.447 0.448s0.2 0.448 0.447 0.448z"></path>
            <path fill="#f2f2f2" style="fill: var(--color1, #f2f2f2)" d="M48.383 4.834c0.247 0 0.447-0.2 0.447-0.448s-0.2-0.448-0.447-0.448c-0.247 0-0.447 0.2-0.447 0.448s0.2 0.448 0.447 0.448z"></path>
            <path fill="#f2f2f2" style="fill: var(--color1, #f2f2f2)" d="M48.383 6.618c0.247 0 0.447-0.2 0.447-0.448s-0.2-0.448-0.447-0.448c-0.247 0-0.447 0.2-0.447 0.448s0.2 0.448 0.447 0.448z"></path>
            <path fill="#f2f2f2" style="fill: var(--color1, #f2f2f2)" d="M46.516 1.266c0.247 0 0.447-0.2 0.447-0.448s-0.2-0.448-0.447-0.448c-0.247 0-0.447 0.2-0.447 0.448s0.2 0.448 0.447 0.448z"></path>
            <path fill="#f2f2f2" style="fill: var(--color1, #f2f2f2)" d="M46.516 3.050c0.247 0 0.447-0.2 0.447-0.448s-0.2-0.448-0.447-0.448c-0.247 0-0.447 0.2-0.447 0.448s0.2 0.448 0.447 0.448z"></path>
            <path fill="#f2f2f2" style="fill: var(--color1, #f2f2f2)" d="M46.516 4.834c0.247 0 0.447-0.2 0.447-0.448s-0.2-0.448-0.447-0.448c-0.247 0-0.447 0.2-0.447 0.448s0.2 0.448 0.447 0.448z"></path>
            <path fill="#f2f2f2" style="fill: var(--color1, #f2f2f2)" d="M46.516 6.618c0.247 0 0.447-0.2 0.447-0.448s-0.2-0.448-0.447-0.448c-0.247 0-0.447 0.2-0.447 0.448s0.2 0.448 0.447 0.448z"></path>
            <path fill="#f2f2f2" style="fill: var(--color1, #f2f2f2)" d="M44.649 1.266c0.247 0 0.447-0.2 0.447-0.448s-0.2-0.448-0.447-0.448c-0.247 0-0.447 0.2-0.447 0.448s0.2 0.448 0.447 0.448z"></path>
            <path fill="#f2f2f2" style="fill: var(--color1, #f2f2f2)" d="M44.649 3.050c0.247 0 0.447-0.2 0.447-0.448s-0.2-0.448-0.447-0.448c-0.247 0-0.447 0.2-0.447 0.448s0.2 0.448 0.447 0.448z"></path>
            <path fill="#f2f2f2" style="fill: var(--color1, #f2f2f2)" d="M44.649 4.834c0.247 0 0.447-0.2 0.447-0.448s-0.2-0.448-0.447-0.448c-0.247 0-0.447 0.2-0.447 0.448s0.2 0.448 0.447 0.448z"></path>
            <path fill="#f2f2f2" style="fill: var(--color1, #f2f2f2)" d="M44.649 6.618c0.247 0 0.447-0.2 0.447-0.448s-0.2-0.448-0.447-0.448c-0.247 0-0.447 0.2-0.447 0.448s0.2 0.448 0.447 0.448z"></path>
            <path fill="#ffb8b8" style="fill: var(--color10, #ffb8b8)" d="M46.451 16.7c-0.037-0.101-0.052-0.208-0.044-0.315s0.038-0.211 0.089-0.306c0.051-0.095 0.121-0.177 0.206-0.243s0.183-0.112 0.287-0.137c0.033-0.008 0.067-0.013 0.1-0.016l1.681-2.949-0.424-0.73 1.056-0.816 0.808 1.124c0.096 0.135 0.147 0.298 0.143 0.464s-0.060 0.326-0.161 0.458l-2.307 2.957c0.008 0.023 0.016 0.047 0.022 0.072 0.025 0.104 0.028 0.213 0.008 0.318s-0.062 0.206-0.123 0.294c-0.061 0.088-0.14 0.162-0.232 0.218s-0.194 0.091-0.3 0.104c-0.031 0.004-0.062 0.006-0.093 0.006-0.156-0-0.308-0.049-0.435-0.138s-0.225-0.216-0.279-0.363z"></path>
            <path fill="#ffb8b8" style="fill: var(--color10, #ffb8b8)" d="M43.172 31.212l-0.848-0-0.403-3.273h1.251l-0 3.273z"></path>
            <path fill="#2f2e41" style="fill: var(--color5, #2f2e41)" d="M41.719 30.97h1.635v1.030h-2.664c0-0.135 0.026-0.269 0.078-0.395s0.127-0.238 0.223-0.334c0.096-0.096 0.209-0.172 0.334-0.224s0.259-0.078 0.394-0.078z"></path>
            <path fill="#ffb8b8" style="fill: var(--color10, #ffb8b8)" d="M50.156 31.212l-0.848-0-0.403-3.273h1.251l-0 3.273z"></path>
            <path fill="#2f2e41" style="fill: var(--color5, #2f2e41)" d="M48.703 30.97h1.635v1.030h-2.664c0-0.135 0.027-0.269 0.078-0.395s0.127-0.238 0.223-0.334c0.096-0.096 0.209-0.172 0.334-0.224s0.259-0.078 0.394-0.078z"></path>
            <path fill="#ff5300" style="fill: var(--color4, #ff5300)" d="M49.636 11.348l-1.903 0.724-0.465-1.292c-0.062-0.172-0.061-0.359 0.002-0.53s0.185-0.314 0.343-0.404c0.16-0.091 0.348-0.121 0.529-0.086s0.343 0.134 0.458 0.279l1.036 1.31z"></path>
            <path fill="#2f2e41" style="fill: var(--color5, #2f2e41)" d="M43.245 28.561l-1.596-0.364c-0.085-0.020-0.159-0.070-0.208-0.143s-0.069-0.16-0.055-0.246c0.64-4.064 1.257-6.444 2.845-9.466 0.022-0.056 0.27-1.2 0.432-1.958-0.002-0.084 0.027-0.165 0.080-0.229s0.129-0.106 0.211-0.119l2.976-0.459c0.045-0.016 0.092-0.023 0.14-0.021l0.030 0.006-0 0.029c-0 0.030-0.031 0.035-0.042 0.037l-0.039 0.006c0.045 0.021 0.087 0.049 0.123 0.084 1.304 1.57 1.982 6.718 2.843 12.404 0.005 0.046-0.001 0.093-0.016 0.137s-0.041 0.083-0.074 0.116c-0.031 0.034-0.069 0.061-0.111 0.081s-0.087 0.029-0.134 0.030l-1.901 0.047c-0.084 0.002-0.165-0.027-0.229-0.081s-0.106-0.129-0.119-0.212l-1.281-7.41c-0.009-0.058-0.036-0.111-0.077-0.153s-0.095-0.069-0.153-0.078c-0.058-0.009-0.117 0.001-0.169 0.028s-0.094 0.070-0.12 0.122c-1.033 2.107-1.997 3.929-2.946 7.564-0.019 0.074-0.062 0.139-0.121 0.186s-0.134 0.072-0.21 0.072c-0.026 0-0.052-0.003-0.078-0.009z"></path>
            <path fill="#ff5300" style="fill: var(--color4, #ff5300)" d="M44.795 16.467c-0.040-0.028-0.074-0.065-0.099-0.107s-0.040-0.090-0.045-0.138c-0.244-2.278-0.074-4.061 0.519-5.45 0.104-0.24 0.262-0.452 0.46-0.622s0.433-0.293 0.685-0.359l1.538-0.078 0.008 0.004c0.347 0.17 0.63 0.448 0.807 0.792s0.239 0.736 0.176 1.118c-0.495 1.306-0.909 2.665-0.593 3.762 0.013 0.046 0.017 0.094 0.011 0.141s-0.021 0.093-0.045 0.134c-0.023 0.040-0.054 0.075-0.091 0.102s-0.079 0.047-0.124 0.058l-2.93 0.698c-0.047 0.011-0.097 0.012-0.145 0.003s-0.093-0.029-0.133-0.057z"></path>
            <path fill="#ffb8b8" style="fill: var(--color10, #ffb8b8)" d="M44.133 13.198l-2.951-2.33c-0.023 0.008-0.047 0.015-0.072 0.021-0.104 0.024-0.212 0.027-0.317 0.006s-0.205-0.062-0.292-0.123c-0.088-0.061-0.163-0.141-0.218-0.233s-0.090-0.195-0.102-0.302c-0.020-0.171 0.019-0.343 0.109-0.49s0.228-0.258 0.389-0.316c0.101-0.036 0.208-0.051 0.315-0.042s0.211 0.039 0.305 0.090c0.094 0.051 0.176 0.122 0.242 0.207s0.111 0.183 0.136 0.288c0.008 0.033 0.013 0.067 0.016 0.101l2.937 1.696 0.731-0.421 0.81 1.061-1.135 0.81c-0.133 0.094-0.292 0.143-0.455 0.139s-0.32-0.060-0.448-0.161v0z"></path>
            <path fill="#ff5300" style="fill: var(--color4, #ff5300)" d="M46.531 12.741l-1.684-1.146 0.791-1.122c0.105-0.149 0.259-0.256 0.436-0.302s0.363-0.028 0.528 0.050c0.166 0.079 0.299 0.216 0.373 0.384s0.087 0.358 0.034 0.535l-0.478 1.601z"></path>
            <path fill="#ffb8b8" style="fill: var(--color10, #ffb8b8)" d="M47.34 9.137c0.938 0 1.698-0.761 1.698-1.7s-0.76-1.7-1.698-1.7c-0.938 0-1.698 0.761-1.698 1.7s0.76 1.7 1.698 1.7z"></path>
            <path fill="#2f2e41" style="fill: var(--color5, #2f2e41)" d="M46.718 7.184c-0.437 0.299-1.010 0.607-1.456 0.288-0.293-0.209-0.385-0.596-0.266-0.936 0.214-0.611 0.8-0.88 1.361-1.086 0.729-0.268 1.523-0.481 2.276-0.289s1.418 0.922 1.282 1.687c-0.109 0.616-0.689 1.128-0.607 1.748 0.083 0.624 0.784 0.952 1.402 1.064s1.311 0.147 1.756 0.592c0.567 0.568 0.425 1.582-0.108 2.181s-1.339 0.871-2.12 1.056c-1.034 0.245-2.152 0.373-3.135-0.033s-1.746-1.499-1.462-2.524c0.12-0.433 0.403-0.799 0.677-1.155s0.551-0.729 0.655-1.166c0.087-0.364 0.023-0.787-0.219-1.060-0.044-0.048-0.072-0.108-0.079-0.173s0.006-0.13 0.038-0.186l0.004-0.007z"></path>
        </symbol>

        <symbol id="facebook" viewBox="0 0 32 32">
            <path d="M18.667 18h3.333l1.333-5.333h-4.667v-2.667c0-1.373 0-2.667 2.667-2.667h2v-4.48c-0.435-0.057-2.076-0.187-3.809-0.187-3.62 0-6.191 2.209-6.191 6.267v3.733h-4v5.333h4v11.333h5.333v-11.333z"></path>
        </symbol> 

        <symbol id="instagram" viewBox="0 0 32 32">
            <path d="M16 2.667c3.623 0 4.075 0.013 5.496 0.080 1.42 0.067 2.387 0.289 3.237 0.62 0.88 0.339 1.621 0.797 2.363 1.537 0.678 0.667 1.203 1.473 1.537 2.363 0.329 0.849 0.553 1.817 0.62 3.237 0.063 1.421 0.080 1.873 0.080 5.496s-0.013 4.075-0.080 5.496c-0.067 1.42-0.291 2.387-0.62 3.237-0.334 0.89-0.859 1.697-1.537 2.363-0.667 0.678-1.473 1.202-2.363 1.537-0.849 0.329-1.817 0.553-3.237 0.62-1.421 0.063-1.873 0.080-5.496 0.080s-4.075-0.013-5.496-0.080c-1.42-0.067-2.387-0.291-3.237-0.62-0.89-0.334-1.697-0.859-2.363-1.537-0.678-0.666-1.203-1.473-1.537-2.363-0.331-0.849-0.553-1.817-0.62-3.237-0.063-1.421-0.080-1.873-0.080-5.496s0.013-4.075 0.080-5.496c0.067-1.421 0.289-2.387 0.62-3.237 0.334-0.89 0.858-1.697 1.537-2.363 0.666-0.678 1.473-1.203 2.363-1.537 0.851-0.331 1.816-0.553 3.237-0.62 1.421-0.063 1.873-0.080 5.496-0.080zM16 9.333c-1.768 0-3.464 0.702-4.714 1.953s-1.953 2.946-1.953 4.714c0 1.768 0.702 3.464 1.953 4.714s2.946 1.953 4.714 1.953 3.464-0.702 4.714-1.953c1.25-1.25 1.953-2.946 1.953-4.714s-0.702-3.464-1.953-4.714c-1.25-1.25-2.946-1.953-4.714-1.953zM24.667 9c0-0.442-0.176-0.866-0.488-1.178s-0.737-0.488-1.179-0.488c-0.442 0-0.866 0.176-1.179 0.488s-0.488 0.736-0.488 1.178c0 0.442 0.176 0.866 0.488 1.178s0.737 0.488 1.179 0.488c0.442 0 0.866-0.176 1.179-0.488s0.488-0.736 0.488-1.178zM16 12c1.061 0 2.078 0.421 2.828 1.172s1.172 1.768 1.172 2.828c0 1.061-0.421 2.078-1.172 2.828s-1.768 1.172-2.828 1.172c-1.061 0-2.078-0.421-2.828-1.172s-1.172-1.768-1.172-2.828c0-1.061 0.421-2.078 1.172-2.828s1.768-1.172 2.828-1.172z"></path>
        </symbol>  

        <symbol id="twitter" viewBox="0 0 32 32">
            <path d="M29.549 7.541c-1.018 0.45-2.097 0.746-3.203 0.877 1.165-0.697 2.037-1.793 2.453-3.085-1.093 0.651-2.292 1.107-3.541 1.353-0.839-0.898-1.951-1.493-3.164-1.694s-2.457 0.005-3.541 0.585c-1.084 0.58-1.945 1.502-2.451 2.622s-0.627 2.376-0.345 3.572c-2.217-0.111-4.386-0.687-6.366-1.691s-3.727-2.413-5.127-4.136c-0.496 0.851-0.756 1.819-0.755 2.804 0 1.933 0.984 3.641 2.48 4.641-0.885-0.028-1.751-0.267-2.525-0.697v0.069c0 1.288 0.446 2.535 1.261 3.532s1.95 1.681 3.212 1.936c-0.822 0.223-1.684 0.255-2.52 0.096 0.356 1.108 1.049 2.078 1.983 2.772s2.062 1.080 3.226 1.101c-1.157 0.908-2.481 1.58-3.897 1.976s-2.897 0.509-4.357 0.333c2.549 1.639 5.516 2.509 8.547 2.507 10.257 0 15.867-8.497 15.867-15.867 0-0.24-0.007-0.483-0.017-0.72 1.092-0.789 2.034-1.767 2.783-2.887l-0.001-0.001z"></path>
        </symbol>

        <symbol id="skype" viewBox="0 0 32 32">
            <path d="M17.747 27.2c-1.763 0.275-3.566 0.131-5.263-0.423s-3.238-1.499-4.5-2.761c-1.262-1.262-2.208-2.804-2.761-4.5s-0.698-3.5-0.423-5.263c-0.695-1.322-0.949-2.832-0.725-4.308s0.915-2.843 1.971-3.899c1.056-1.056 2.422-1.747 3.899-1.971s2.986 0.030 4.308 0.725c1.763-0.275 3.566-0.131 5.263 0.423s3.238 1.499 4.5 2.761c1.262 1.262 2.208 2.804 2.761 4.5s0.698 3.5 0.423 5.263c0.695 1.322 0.949 2.832 0.725 4.308s-0.915 2.843-1.971 3.899-2.422 1.747-3.899 1.971c-1.477 0.224-2.986-0.030-4.308-0.725zM16.069 22.875h-0.053c3.829 0 5.737-1.848 5.737-4.324 0-1.597-0.735-3.295-3.635-3.944l-2.644-0.587c-1.007-0.229-2.163-0.533-2.163-1.487s0.827-1.617 2.299-1.617c2.973 0 2.703 2.037 4.175 2.037 0.768 0 1.457-0.456 1.457-1.24 0-1.827-2.929-3.2-5.408-3.2-2.695 0-5.564 1.145-5.564 4.192 0 1.464 0.525 3.027 3.413 3.751l3.585 0.895c1.088 0.269 1.357 0.879 1.357 1.429 0 0.916-0.912 1.811-2.557 1.811-3.223 0-2.771-2.476-4.499-2.476-0.773 0-1.337 0.531-1.337 1.295 0 1.485 1.803 3.464 5.836 3.464v0.001z"></path>
        </symbol>

        <symbol id="about-file" viewBox="0 0 32 32">
            <path d="M12 2.671v-0.004h14.664c0.736 0 1.336 0.607 1.336 1.323v24.021c-0 0.351-0.14 0.687-0.388 0.935s-0.585 0.387-0.936 0.387h-21.352c-0.175-0.001-0.348-0.037-0.51-0.105s-0.308-0.167-0.431-0.292c-0.123-0.125-0.22-0.272-0.286-0.435s-0.099-0.336-0.098-0.511v-17.324l8-7.996zM7.773 10.667h4.227v-4.227l-4.227 4.227zM14.667 5.333v6.667c0 0.354-0.14 0.693-0.39 0.943s-0.589 0.39-0.943 0.39h-6.667v13.333h18.667v-21.333h-10.667z"></path>
        </symbol>

        <symbol id="about-code" viewBox="0 0 32 32">
            <path d="M30.667 16l-9.428 9.428-1.885-1.885 7.543-7.543-7.543-7.543 1.885-1.885 9.428 9.428zM5.104 16l7.543 7.543-1.885 1.885-9.428-9.428 9.428-9.428 1.885 1.885-7.543 7.543z"></path>
        </symbol>

        <symbol id="about-settings" viewBox="0 0 32 32">
            <path d="M2.667 16c0-1.153 0.147-2.271 0.421-3.339 0.737 0.039 1.47-0.127 2.118-0.479s1.187-0.876 1.556-1.515c0.369-0.639 0.554-1.367 0.535-2.104s-0.242-1.455-0.643-2.074c1.612-1.586 3.601-2.735 5.78-3.34 0.335 0.658 0.845 1.21 1.474 1.596s1.353 0.59 2.091 0.59c0.738 0 1.462-0.204 2.091-0.59s1.139-0.938 1.474-1.596c2.179 0.605 4.168 1.754 5.78 3.34-0.402 0.619-0.625 1.337-0.644 2.075s0.166 1.466 0.535 2.105c0.369 0.639 0.908 1.163 1.557 1.515s1.382 0.517 2.119 0.478c0.275 1.067 0.421 2.184 0.421 3.337s-0.147 2.271-0.421 3.339c-0.737-0.039-1.47 0.127-2.119 0.478s-1.187 0.876-1.556 1.515c-0.369 0.639-0.554 1.367-0.535 2.105s0.242 1.455 0.643 2.074c-1.612 1.586-3.601 2.735-5.78 3.34-0.335-0.658-0.845-1.21-1.474-1.596s-1.353-0.59-2.091-0.59c-0.738 0-1.462 0.204-2.091 0.59s-1.139 0.938-1.474 1.596c-2.179-0.605-4.168-1.754-5.78-3.34 0.402-0.619 0.625-1.337 0.644-2.075s-0.166-1.466-0.535-2.105c-0.369-0.639-0.908-1.163-1.557-1.515s-1.382-0.517-2.119-0.478c-0.273-1.065-0.42-2.183-0.42-3.337zM9.072 20c0.84 1.455 1.080 3.128 0.752 4.699 0.544 0.387 1.123 0.721 1.729 1 1.222-1.095 2.806-1.7 4.447-1.699 1.68 0 3.251 0.628 4.447 1.699 0.607-0.279 1.185-0.613 1.729-1-0.337-1.605-0.069-3.279 0.752-4.699 0.82-1.421 2.135-2.489 3.693-3 0.062-0.665 0.062-1.335 0-2-1.559-0.511-2.875-1.579-3.695-3-0.821-1.42-1.089-3.093-0.752-4.699-0.544-0.387-1.123-0.722-1.729-1-1.222 1.095-2.805 1.699-4.445 1.699-1.641 0.001-3.224-0.604-4.447-1.699-0.607 0.278-1.186 0.613-1.729 1 0.337 1.605 0.069 3.279-0.752 4.699-0.819 1.421-2.135 2.489-3.693 3-0.062 0.665-0.062 1.335 0 2 1.559 0.511 2.875 1.579 3.695 3h-0.001zM16 20c-1.061 0-2.078-0.421-2.828-1.172s-1.172-1.768-1.172-2.828c0-1.061 0.421-2.078 1.172-2.828s1.768-1.172 2.828-1.172 2.078 0.421 2.828 1.172c0.75 0.75 1.172 1.768 1.172 2.828s-0.421 2.078-1.172 2.828c-0.75 0.75-1.768 1.172-2.828 1.172zM16 17.333c0.354 0 0.693-0.14 0.943-0.39s0.39-0.589 0.39-0.943c0-0.354-0.14-0.693-0.39-0.943s-0.589-0.39-0.943-0.39-0.693 0.14-0.943 0.39c-0.25 0.25-0.39 0.589-0.39 0.943s0.14 0.693 0.39 0.943c0.25 0.25 0.589 0.39 0.943 0.39z"></path>
        </symbol>

        <symbol id="about-share" viewBox="0 0 32 32">
            <path d="M13.333 4v2.667h-6.667v18.667h18.667v-6.667h2.667v8c0 0.354-0.14 0.693-0.39 0.943s-0.589 0.39-0.943 0.39h-21.333c-0.354 0-0.693-0.14-0.943-0.39s-0.391-0.589-0.391-0.943v-21.333c0-0.354 0.14-0.693 0.391-0.943s0.589-0.391 0.943-0.391h8zM23.448 6.667h-6.115v-2.667h10.667v10.667h-2.667v-6.115l-9.333 9.333-1.885-1.885 9.333-9.333z"></path>
        </symbol>
    </defs>
</svg>
